<svg aria-hidden="true" style="position:absolute;width:0;height:0" xmlns="http://www.w3.org/2000/svg" overflow="hidden"><defs><symbol id="icon-facebook" viewBox="0 0 16 32"><path d="M14.879.245v5.072s-3.738-.373-4.674 1.06c-.512.783-.208 3.077-.254 4.724h4.959c-.418 1.925-.719 3.23-1.028 4.896H9.924v15.759h-6.87V16.059H.131v-4.958h2.891c.148-3.626.203-7.217 2.005-9.046C7.05-.002 8.981.246 14.879.246z"/></symbol><symbol id="icon-instagram" viewBox="0 0 32 32"><path d="M27.938 31.754H4.307a3.938 3.938 0 0 1-3.938-3.938V4.184A3.938 3.938 0 0 1 4.307.246h23.631a3.938 3.938 0 0 1 3.938 3.938v23.632a3.938 3.938 0 0 1-3.938 3.938zM16.123 9.894a6.1 6.1 0 0 0-5.52 3.507l-.016.037h-.006l-.027.068a4.777 4.777 0 0 0-.143.351l-.014.045c-.023.065-.049.128-.07.192a4.013 4.013 0 0 0-.109.382l-.008.037c-.017.065-.037.13-.052.197a5.358 5.358 0 0 0-.072.422l-.003.031c-.009.062-.021.122-.028.185a6.105 6.105 0 1 0 12.136-.028l.003.028c-.007-.063-.02-.123-.028-.185a6.094 6.094 0 0 0-.082-.493l.007.04c-.015-.066-.034-.132-.052-.197a5.02 5.02 0 0 0-.128-.457l.011.038c-.021-.064-.047-.127-.07-.192a5.803 5.803 0 0 0-.174-.436l.016.041-.027-.068h-.006c-.99-2.109-3.095-3.543-5.536-3.545zm12.209-4.529a1.575 1.575 0 0 0-1.575-1.574h-3.151c-.87 0-1.575.705-1.575 1.574v3.152c0 .87.705 1.575 1.575 1.575h3.151c.87 0 1.575-.705 1.575-1.575V5.365zm0 8.074h-2.905c.22.768.346 1.65.346 2.561 0 5.328-4.32 9.648-9.648 9.648h-.006c-5.328 0-9.648-4.32-9.648-9.648 0-.911.126-1.793.363-2.629l-.016.068H3.913v13.195c0 .87.705 1.575 1.575 1.575h21.268c.87 0 1.575-.705 1.575-1.575V13.439z"/></symbol><symbol id="icon-magnifying-glass" viewBox="0 0 32 32"><path d="M30.786 26.636a2.933 2.933 0 1 1-4.149 4.147l-8.597-8.596a11.542 11.542 0 0 1-5.95 1.634C5.61 23.821.357 18.568.357 12.088S5.61.355 12.09.355s11.733 5.253 11.733 11.733a11.617 11.617 0 0 1-1.663 6.003l.029-.053 8.597 8.597zM12.089 3.287a8.802 8.802 0 0 0 .001 17.602h.001a8.8 8.8 0 0 0-.001-17.6h-.001z"/></symbol><symbol id="icon-pinterest" viewBox="0 0 26 32"><path d="M11.14 20.743c-.257 1.025-.517 2.1-.785 3.151-.265 1.036-.498 2.087-.884 3.04-.639 1.577-1.45 3.1-2.514 4.334-.708.821-.558.494-.77.449-.162-.034-.176-.193-.208-.425-.174-1.253-.055-2.702.009-4.11.074-1.605.411-2.939.725-4.272.596-2.54 1.164-5.03 1.766-7.586.039-.17.148-.45.111-.548-.273-.71-.45-1.348-.528-2.094a6.697 6.697 0 0 1 .181-2.438l-.01.046c.341-1.302 1.124-2.455 2.331-2.878.768-.266 1.618-.145 2.135.162.532.319.897.821 1.067 1.534.182.757.048 1.663-.098 2.327-.329 1.5-.761 2.626-1.153 4.074-.194.718-.415 1.455-.233 2.23a2.598 2.598 0 0 0 1.042 1.569c.524.382 1.145.59 2 .56 1.511-.053 2.561-1.019 3.263-1.93 1.124-1.458 1.803-3.426 2.062-5.767.082-.756.144-1.623.086-2.479-.108-1.58-.602-2.852-1.387-3.836-.746-.939-1.804-1.685-3.092-2.106-1.276-.416-3.042-.555-4.612-.287-2.853.489-4.864 2.11-6.049 4.348a8.606 8.606 0 0 0-1.031 4.111v.09-.005c0 1.294.319 2.295.834 3.077.164.247.404.452.564.735.228.401-.034.998-.146 1.433-.135.523-.15 1.246-.761 1.258-.254.005-.571-.18-.785-.299-1.606-.887-2.581-2.502-2.981-4.596-.116-.599-.182-1.288-.182-1.993s.066-1.393.193-2.061l-.011.068a11.408 11.408 0 0 1 5.358-7.533l.053-.029C8.074 1.255 9.623.685 11.509.41A19.09 19.09 0 0 1 13.45.249l.035-.001a11.822 11.822 0 0 1 5.399 1.027l-.075-.03a10.952 10.952 0 0 1 3.66 2.633l.008.009c1.031 1.126 1.782 2.436 2.257 4.073.249.852.49 1.762.49 2.815 0 1.056-.223 1.985-.379 2.914-.583 3.481-2.239 6.327-4.724 7.948a8.055 8.055 0 0 1-2.101.981l-.058.015c-.821.239-1.758.418-2.761.348a5.622 5.622 0 0 1-2.469-.725l.028.015c-.665-.375-1.223-.836-1.62-1.531z"/></symbol><symbol id="icon-shopping-cart" viewBox="0 0 32 32"><path d="M31.513 9.179h.002l-4.4 9.778a1.472 1.472 0 0 1-1.234.862h-.005l-12.672.844.732 2.091h13.797a2.933 2.933 0 1 1-2.933 2.935H11.111a2.934 2.934 0 1 1-2.933-2.934h2.651L5.183 6.623h-3.36a1.467 1.467 0 0 1 0-2.934h4.4c.64 0 1.179.412 1.38.983l.005-.002.853 2.441h21.717a1.467 1.467 0 0 1 1.331 2.077l.004-.009zm-22.025.865l2.711 7.746 12.603-.841 3.108-6.905H9.489z"/></symbol><symbol id="icon-twitter" viewBox="0 0 32 28"><path d="M21.554 3.201c2.503-.044 3.836.868 5.109 2.027 1.081-.092 2.485-.695 3.312-1.116l.804-.439c-.473 1.276-1.113 2.276-2.097 3.035-.219.167-.436.395-.71.502v.016c1.403-.014 2.56-.647 3.659-.991v.016c-.577.917-1.359 1.849-2.192 2.516l-1.009.801c.018 1.486-.022 2.903-.299 4.151-1.615 7.255-5.893 12.181-12.663 14.292-2.432.757-6.361 1.068-9.147.377-1.381-.342-2.629-.73-3.799-1.242a14.79 14.79 0 0 1-1.895-.981l.065.037-.567-.345c.628.018 1.364.192 2.065.078.636-.102 1.259-.075 1.846-.203 1.462-.321 2.761-.746 3.878-1.401.543-.318 1.366-.689 1.751-1.147-.726.012-1.385-.156-1.924-.346-2.091-.738-3.308-2.096-4.101-4.135.634.07 2.459.235 2.886-.126-.798-.044-1.564-.506-2.113-.849-1.682-1.052-3.054-2.817-3.044-5.534l.662.314c.423.178.853.273 1.356.378.213.044.639.169.884.078h-.032c-.325-.378-.855-.63-1.183-1.038-1.079-1.34-2.09-3.404-1.451-5.863.162-.624.42-1.174.694-1.682l.032.015c.126.263.406.457.583.677.551.683 1.231 1.297 1.924 1.839 2.361 1.846 4.486 2.981 7.9 3.82.868.23 1.867.367 2.896.378h.007c-.29-.846-.197-2.215.031-3.034.576-2.06 1.825-3.543 3.659-4.34a7.445 7.445 0 0 1 1.384-.431l.051-.009.789-.094z"/></symbol></defs></svg>